PathFileType	4	(X/Y/Z)	E:\3-PhD\Data\MocapData\ElaboratedData\009\pre\dynamicElaborations\RunL2\RunL2.trc
DataRate	CameraRate	NumFrames	NumMarkers	Units	OrigDataRate	DataStartFrame
200	200	5	54	mm	200	562
Frame#	Time	FHD			LBHD			RBHD			C7			T10			CLAV			LSHO			LUUPA			LMUPA			LDUPA			LLEP			LMEP			LRAD			LUL			LRFIN			RSHO			RUPA1			RMUPA			RDUPA			RLEP			RMEP			RRAD			RUL			RUFIN			RASI			USACR			LSACR			RSACR			LTHI1			LTHI2			LTHI3			LTHI4			LTIB1			LTIB2			LTIB3			LTIB4			LLMAL			LHEE			LMT1			LMT2			RTHI			RTHI2			RTHI3			RTHI4			RLFC			RTIB1			RTIB2			RTIB3			RTIB4			RLMAL			RHEE			RMT1			RMT2			RMT5		
		X1	Y1	Z1	X2	Y2	Z2	X3	Y3	Z3	X4	Y4	Z4	X5	Y5	Z5	X6	Y6	Z6	X7	Y7	Z7	X8	Y8	Z8	X9	Y9	Z9	X10	Y10	Z10	X11	Y11	Z11	X12	Y12	Z12	X13	Y13	Z13	X14	Y14	Z14	X15	Y15	Z15	X16	Y16	Z16	X17	Y17	Z17	X18	Y18	Z18	X19	Y19	Z19	X20	Y20	Z20	X21	Y21	Z21	X22	Y22	Z22	X23	Y23	Z23	X24	Y24	Z24	X25	Y25	Z25	X26	Y26	Z26	X27	Y27	Z27	X28	Y28	Z28	X29	Y29	Z29	X30	Y30	Z30	X31	Y31	Z31	X32	Y32	Z32	X33	Y33	Z33	X34	Y34	Z34	X35	Y35	Z35	X36	Y36	Z36	X37	Y37	Z37	X38	Y38	Z38	X39	Y39	Z39	X40	Y40	Z40	X41	Y41	Z41	X42	Y42	Z42	X43	Y43	Z43	X44	Y44	Z44	X45	Y45	Z45	X46	Y46	Z46	X47	Y47	Z47	X48	Y48	Z48	X49	Y49	Z49	X50	Y50	Z50	X51	Y51	Z51	X52	Y52	Z52	X53	Y53	Z53	X54	Y54	Z54	

569	2.840000	-588.246207	1490.535505	-30.461744	-787.483433	1467.063377	-21.934045	-694.504394	1475.306271	63.540325	-829.742746	1363.762620	14.767662	-1015.094843	1067.944283	78.075722	-740.734560	1228.286228	5.105709	-773.989716	1271.636455	-137.244589	-910.171015	1131.378516	-219.588448	-897.665367	1088.558072	-199.233875	-950.269069	1074.735715	-226.527298	-1039.847797	995.014166	-230.072605	-1063.940770	998.214828	-156.867162	-996.610745	741.586613	-177.078921	-1063.659439	730.592828	-206.119142	-981.110116	671.689138	-206.812709	-766.505627	1324.069350	162.822731	-882.180046	1252.156697	288.167637	-867.617749	1210.620424	303.048883	-924.445385	1216.385501	330.094249	-990.694252	1120.135319	400.584473	-1017.401004	1084.656403	343.920596	-763.040810	988.120574	349.494639	-790.357863	951.544097	404.211553	-692.631842	981.692142	387.228388	-846.204625	889.386277	165.535299	-1046.745014	977.068195	109.742363	-1062.363224	940.742542	93.684213	-1038.789516	952.838853	146.413670	-939.600730	601.974774	-80.680405	-880.769293	542.344451	-95.792943	-838.090317	562.470301	-100.963916	-881.862467	482.168957	-78.323753	-902.472387	319.854233	48.213052	-977.101924	361.497460	19.319799	-960.626776	332.251949	45.271258	-1011.996841	333.367926	112.721031	-1156.207197	372.333860	172.040593	-1194.609732	449.324696	229.249823	-1114.751376	241.694021	265.042192	-1134.219611	232.296829	222.910122	-812.497344	704.221216	317.506445	-762.196744	663.726836	321.288047	-733.544465	666.554016	304.017131	-767.309578	580.092864	342.664680	-714.881464	486.228196	361.553008	-695.048971	272.769453	418.469432	-752.259313	237.523065	503.104464	-717.597242	218.395823	479.082428	-728.022075	162.903807	475.071442	-780.038366	106.192427	564.258860	-861.434856	54.125254	568.718261	-652.331380	55.547228	479.267433	-638.428671	57.747043	517.329920	-656.381463	36.242777	581.261775	
570	2.845000	-563.053415	1485.101288	-42.258492	-762.183389	1460.855176	-31.433115	-668.205211	1469.494614	53.024723	-804.116110	1358.218188	6.893409	-989.851218	1063.211121	74.416431	-715.511347	1221.448199	-4.005459	-752.033710	1263.875079	-146.449511	-893.920864	1126.524203	-224.519117	-882.029382	1083.301269	-204.574358	-935.566176	1070.997208	-230.569992	-1027.186336	994.185284	-231.852521	-1049.216658	997.787017	-157.919990	-999.448495	737.992229	-181.020092	-1067.876248	731.793696	-208.862442	-989.717882	666.907993	-212.070875	-736.191701	1318.662100	153.806409	-842.539935	1243.770474	284.334279	-827.164157	1202.334571	298.341720	-881.430858	1207.626240	329.160674	-942.752278	1109.365536	401.737345	-972.840140	1073.941687	347.713464	-715.770074	985.221190	337.180961	-738.422115	947.420011	393.183165	-643.046070	980.791020	370.811997	-820.393313	885.109470	161.241122	-1022.076792	972.159959	106.160374	-1037.435751	935.524463	90.591751	-1013.694440	948.468146	143.102358	-909.242773	602.230553	-88.937381	-848.570086	545.242996	-106.975237	-806.783450	567.059203	-112.758425	-846.911491	484.691730	-90.812750	-858.044850	321.493051	34.452720	-934.504612	361.116886	8.356272	-916.350575	332.180274	33.575338	-965.464985	331.378450	103.020781	-1108.830565	365.191687	166.833095	-1148.034965	440.211396	226.217588	-1059.981290	235.268018	256.957023	-1080.593982	225.536301	215.385059	-792.554121	697.810646	317.521745	-742.969207	656.505709	322.997321	-713.503860	658.883444	306.830089	-750.410033	572.623100	343.080594	-698.886695	479.012307	363.391971	-686.207872	265.875529	420.551483	-746.261032	233.384840	504.484463	-712.015305	212.782020	481.226354	-724.808301	157.695895	477.328554	-779.939422	103.644297	565.917100	-862.081735	51.854212	571.232643	-653.266925	55.993895	480.624736	-639.065477	57.702493	518.557970	-656.376470	35.485294	582.656225	
571	2.850000	-538.228458	1480.051037	-54.432301	-737.244248	1455.164792	-41.234920	-642.244881	1464.160061	42.153099	-778.839104	1352.963362	-1.245497	-964.750840	1058.856042	70.134269	-690.482805	1215.010231	-13.419303	-730.381062	1256.638792	-155.802362	-877.895996	1122.786305	-229.694109	-866.561572	1079.050839	-210.641260	-921.129252	1068.553645	-234.950425	-1014.446831	994.326113	-234.115718	-1034.493658	998.171917	-159.519839	-1001.175006	736.506197	-184.717867	-1070.623892	734.792865	-211.301224	-996.904445	664.624785	-216.828270	-706.105657	1313.769493	144.266149	-802.491409	1235.894272	279.361863	-786.311829	1194.639978	292.464137	-837.620604	1199.444783	326.775913	-893.781337	1099.089220	401.464781	-927.201091	1063.576944	350.337925	-668.509738	983.337188	323.521811	-686.278063	944.391133	380.580850	-593.777258	981.113880	352.954907	-795.014193	880.951281	157.096154	-997.564164	967.751918	101.965273	-1012.582481	930.789427	86.855419	-988.782631	944.615993	139.183769	-879.108166	602.959394	-97.285318	-816.759206	548.754948	-118.147877	-775.967679	572.259480	-124.517275	-812.333514	488.001452	-103.290726	-813.654270	323.679946	20.489611	-891.991162	360.891083	-2.525799	-872.023430	332.327737	21.836820	-918.681756	329.305886	93.286728	-1060.998259	357.059227	161.585477	-1101.131911	429.778386	223.265948	-1004.266837	228.320496	248.468601	-1025.949993	218.130764	207.422462	-772.646071	692.352630	317.003975	-723.771089	650.258198	323.891601	-693.714406	652.106753	308.566206	-733.347059	566.315684	343.269733	-683.209607	472.625632	365.015938	-677.697965	259.894090	422.517433	-740.464683	230.087746	505.654575	-706.650968	208.086271	483.128456	-721.647166	153.482015	479.181554	-779.725240	101.976637	566.935558	-862.714913	50.599093	572.794306	-653.959737	56.492812	481.613223	-639.574940	57.791180	519.471098	-656.517813	35.015311	583.684177	
572	2.855000	-513.746928	1475.444044	-66.921961	-712.641458	1450.028878	-51.331710	-616.624206	1459.341203	30.953665	-753.834746	1348.070537	-9.638051	-939.762799	1054.965186	65.220301	-665.644545	1209.063278	-23.152736	-708.993660	1250.026283	-165.320449	-862.057546	1120.262317	-235.127392	-851.264172	1075.905996	-217.417575	-906.927512	1067.511737	-239.656342	-1001.623419	995.535139	-236.884652	-1019.790591	999.530514	-161.710705	-1001.523607	737.046557	-188.191915	-1071.681118	739.415902	-213.503852	-1002.288348	664.683137	-221.047362	-676.223834	1309.478177	134.171512	-762.291927	1228.733012	273.144601	-745.262355	1187.757995	285.327642	-793.346462	1192.026187	322.805772	-844.093297	1089.580517	399.601109	-880.668066	1053.778165	351.479849	-621.476919	982.649357	308.459733	-634.177431	942.675583	366.284846	-545.092347	982.851076	333.659238	-770.019133	877.043191	153.096041	-973.159649	963.886294	97.127294	-987.785871	926.609445	82.402299	-964.049324	941.281734	134.606240	-849.245945	604.107041	-105.715640	-785.381081	552.807513	-129.262964	-745.688953	577.994939	-136.201242	-778.178209	492.035171	-115.679672	-769.353306	326.417619	6.399662	-849.565576	360.805306	-13.318379	-827.678654	332.701899	10.063305	-871.687287	327.145047	83.398447	-1012.667843	348.005616	156.170133	-1053.843760	418.083868	220.226006	-947.655034	221.018941	239.444874	-970.301417	210.245852	198.895790	-752.621704	687.931388	315.878347	-704.443771	645.087177	323.903157	-674.002020	646.347988	309.140161	-715.942852	561.275795	343.194576	-667.677449	467.117623	366.275047	-669.470002	254.819317	424.316289	-734.800726	227.639612	506.578183	-701.427837	204.307312	484.755637	-718.465061	150.237765	480.617865	-779.328296	101.199529	567.355581	-863.267835	50.405015	573.479736	-654.345069	56.943397	482.282136	-639.901030	57.898594	520.123808	-656.754966	34.737734	584.401240	
573	2.860000	-489.574360	1471.330426	-79.658701	-688.341973	1445.467945	-61.726175	-591.341381	1455.061935	19.455800	-729.022841	1343.604751	-18.283153	-914.839638	1051.565933	59.703219	-640.992490	1203.688586	-33.218801	-687.836022	1244.120652	-175.030389	-846.341124	1119.000358	-240.827940	-836.115194	1073.933174	-224.838518	-892.882830	1067.906596	-244.676241	-988.695676	997.877244	-240.164352	-1005.103280	1001.991679	-164.514295	-1000.268802	739.488557	-191.470569	-1070.878529	745.462477	-215.548443	-1005.547872	666.873511	-224.714321	-646.522603	1305.854916	123.489790	-722.227977	1222.465661	265.639429	-704.243561	1181.879933	276.912308	-749.012061	1185.518889	317.218575	-794.052756	1081.090650	396.022830	-833.481802	1044.753892	350.860682	-574.906501	983.302104	291.968908	-582.402858	942.456581	350.218635	-497.265963	986.146910	312.953638	-745.308421	873.531362	149.197550	-948.786885	960.548466	91.661092	-963.011433	922.997876	77.215107	-939.467246	938.407985	129.368936	-819.694256	605.614740	-114.225784	-754.461238	557.320229	-140.285440	-715.970829	584.178655	-147.771260	-744.479002	496.717817	-127.912935	-725.177178	329.682239	-7.738226	-807.218572	360.827450	-24.028573	-783.338919	333.293765	-1.752977	-824.509944	324.903893	73.263690	-963.787732	338.122444	150.453634	-1006.098783	405.212541	216.923436	-890.197377	213.532552	229.746727	-913.673759	202.061750	189.676286	-732.396065	684.509059	314.129043	-684.924015	640.945739	323.058539	-654.271006	641.564318	308.601127	-698.175737	557.449683	342.833830	-652.221770	462.438822	367.089748	-661.515794	250.601112	425.914491	-729.242542	226.002356	507.247411	-696.314529	201.403046	486.100511	-715.237955	147.897298	481.658327	-778.720869	101.272354	567.263272	-863.699009	51.261126	573.423014	-654.414778	57.292374	482.699666	-640.026336	57.954108	520.571836	-657.053511	34.580681	584.867312	
